<svg width="342" height="175" viewBox="0 0 342 175" fill="none" xmlns="http://www.w3.org/2000/svg">
<g filter="url(#filter0_d)">
<path d="M90.918 105.316H108.594V124.359H90.918V156H67.1875V124.359H5.76172L5.07812 109.906L66.4062 13.8125H90.918V105.316ZM29.9805 105.316H67.1875V45.9414L65.4297 49.0664L29.9805 105.316ZM216.992 96.1367C216.992 116.579 213.151 132.009 205.469 142.426C197.852 152.777 186.23 157.953 170.605 157.953C155.241 157.953 143.652 152.908 135.84 142.816C128.092 132.66 124.121 117.654 123.926 97.7969V73.1875C123.926 52.7448 127.734 37.4128 135.352 27.1914C143.034 16.9701 154.72 11.8594 170.41 11.8594C185.97 11.8594 197.559 16.8398 205.176 26.8008C212.858 36.7617 216.797 51.6706 216.992 71.5273V96.1367ZM193.262 69.5742C193.262 56.2279 191.439 46.4622 187.793 40.2773C184.147 34.0273 178.353 30.9023 170.41 30.9023C162.663 30.9023 156.966 33.8646 153.32 39.7891C149.674 45.6484 147.754 54.8281 147.559 67.3281V99.5547C147.559 112.836 149.414 122.732 153.125 129.242C156.836 135.753 162.663 139.008 170.605 139.008C178.223 139.008 183.854 136.013 187.5 130.023C191.146 123.969 193.066 114.529 193.262 101.703V69.5742ZM318.262 105.316H335.938V124.359H318.262V156H294.531V124.359H233.105L232.422 109.906L293.75 13.8125H318.262V105.316ZM257.324 105.316H294.531V45.9414L292.773 49.0664L257.324 105.316Z" fill="#AA495C"/>
</g>
<g filter="url(#filter1_d)">
<path d="M143.373 88.0322C143.373 91.5316 142.755 94.5996 141.518 97.2363C140.281 99.873 138.507 101.908 136.195 103.34C133.9 104.772 131.264 105.488 128.285 105.488C125.339 105.488 122.711 104.78 120.399 103.364C118.088 101.948 116.298 99.93 115.028 97.3096C113.759 94.6729 113.116 91.6455 113.1 88.2275V86.4697C113.1 82.9704 113.726 79.8942 114.979 77.2412C116.249 74.5719 118.031 72.5293 120.326 71.1133C122.637 69.681 125.274 68.9648 128.236 68.9648C131.199 68.9648 133.827 69.681 136.122 71.1133C138.433 72.5293 140.215 74.5719 141.469 77.2412C142.738 79.8942 143.373 82.9622 143.373 86.4453V88.0322ZM135.951 86.4209C135.951 82.6937 135.284 79.8617 133.949 77.9248C132.615 75.988 130.71 75.0195 128.236 75.0195C125.779 75.0195 123.882 75.9798 122.548 77.9004C121.213 79.8047 120.538 82.6042 120.521 86.2988V88.0322C120.521 91.6618 121.189 94.4775 122.523 96.4795C123.858 98.4814 125.779 99.4824 128.285 99.4824C130.743 99.4824 132.631 98.5221 133.949 96.6016C135.268 94.6647 135.935 91.849 135.951 88.1543V86.4209ZM147.133 91.5479C147.133 88.9274 147.637 86.5918 148.646 84.541C149.656 82.4902 151.104 80.9033 152.992 79.7803C154.896 78.6572 157.102 78.0957 159.608 78.0957C163.173 78.0957 166.078 79.1862 168.324 81.3672C170.587 83.5482 171.848 86.5104 172.108 90.2539L172.157 92.0605C172.157 96.1133 171.026 99.3685 168.764 101.826C166.501 104.268 163.466 105.488 159.657 105.488C155.849 105.488 152.805 104.268 150.526 101.826C148.264 99.3848 147.133 96.0645 147.133 91.8652V91.5479ZM154.188 92.0605C154.188 94.5671 154.66 96.4876 155.604 97.8223C156.549 99.1406 157.899 99.7998 159.657 99.7998C161.366 99.7998 162.701 99.1488 163.661 97.8467C164.621 96.5283 165.102 94.4287 165.102 91.5479C165.102 89.0902 164.621 87.1859 163.661 85.835C162.701 84.484 161.35 83.8086 159.608 83.8086C157.883 83.8086 156.549 84.484 155.604 85.835C154.66 87.1696 154.188 89.2448 154.188 92.0605ZM200.282 92.0361C200.282 96.1051 199.354 99.3685 197.499 101.826C195.66 104.268 193.17 105.488 190.028 105.488C187.359 105.488 185.202 104.561 183.559 102.705V115.156H176.503V78.584H183.046L183.29 81.1719C184.999 79.1211 187.229 78.0957 189.979 78.0957C193.235 78.0957 195.766 79.3001 197.572 81.709C199.379 84.1178 200.282 87.4382 200.282 91.6699V92.0361ZM193.227 91.5234C193.227 89.0658 192.787 87.1696 191.908 85.835C191.046 84.5003 189.784 83.833 188.124 83.833C185.91 83.833 184.389 84.6794 183.559 86.3721V97.1875C184.421 98.929 185.959 99.7998 188.173 99.7998C191.542 99.7998 193.227 97.041 193.227 91.5234ZM218.983 97.7002C218.983 96.8376 218.552 96.1621 217.689 95.6738C216.843 95.1693 215.476 94.7217 213.588 94.3311C207.305 93.0127 204.164 90.3434 204.164 86.3232C204.164 83.9795 205.132 82.0264 207.069 80.4639C209.022 78.8851 211.57 78.0957 214.711 78.0957C218.064 78.0957 220.741 78.8851 222.743 80.4639C224.761 82.0426 225.771 84.0934 225.771 86.6162H218.715C218.715 85.6071 218.389 84.777 217.738 84.126C217.087 83.4587 216.07 83.125 214.687 83.125C213.498 83.125 212.579 83.3936 211.928 83.9307C211.277 84.4678 210.951 85.1514 210.951 85.9814C210.951 86.7627 211.317 87.3975 212.05 87.8857C212.799 88.3577 214.052 88.7728 215.81 89.1309C217.567 89.4727 219.049 89.8633 220.253 90.3027C223.98 91.6699 225.844 94.0381 225.844 97.4072C225.844 99.8161 224.81 101.769 222.743 103.267C220.676 104.748 218.007 105.488 214.735 105.488C212.522 105.488 210.552 105.098 208.827 104.316C207.118 103.519 205.775 102.437 204.799 101.069C203.822 99.6859 203.334 98.1966 203.334 96.6016H210.023C210.089 97.8548 210.552 98.8151 211.415 99.4824C212.278 100.15 213.433 100.483 214.882 100.483C216.233 100.483 217.25 100.231 217.934 99.7266C218.633 99.2057 218.983 98.5303 218.983 97.7002ZM230.775 101.533C230.775 100.41 231.15 99.4987 231.898 98.7988C232.663 98.099 233.616 97.749 234.755 97.749C235.91 97.749 236.863 98.099 237.611 98.7988C238.376 99.4987 238.759 100.41 238.759 101.533C238.759 102.64 238.384 103.543 237.636 104.243C236.887 104.927 235.927 105.269 234.755 105.269C233.599 105.269 232.647 104.927 231.898 104.243C231.15 103.543 230.775 102.64 230.775 101.533Z" fill="#E2E1E1"/>
</g>
<defs>
<filter id="filter0_d" x="3.07812" y="11.8594" width="334.859" height="152.094" filterUnits="userSpaceOnUse" color-interpolation-filters="sRGB">
<feFlood flood-opacity="0" result="BackgroundImageFix"/>
<feColorMatrix in="SourceAlpha" type="matrix" values="0 0 0 0 0 0 0 0 0 0 0 0 0 0 0 0 0 0 127 0"/>
<feOffset dy="4"/>
<feGaussianBlur stdDeviation="1"/>
<feColorMatrix type="matrix" values="0 0 0 0 0 0 0 0 0 0 0 0 0 0 0 0 0 0 0.25 0"/>
<feBlend mode="normal" in2="BackgroundImageFix" result="effect1_dropShadow"/>
<feBlend mode="normal" in="SourceGraphic" in2="effect1_dropShadow" result="shape"/>
</filter>
<filter id="filter1_d" x="111.1" y="68.9648" width="129.659" height="52.1914" filterUnits="userSpaceOnUse" color-interpolation-filters="sRGB">
<feFlood flood-opacity="0" result="BackgroundImageFix"/>
<feColorMatrix in="SourceAlpha" type="matrix" values="0 0 0 0 0 0 0 0 0 0 0 0 0 0 0 0 0 0 127 0"/>
<feOffset dy="4"/>
<feGaussianBlur stdDeviation="1"/>
<feColorMatrix type="matrix" values="0 0 0 0 0 0 0 0 0 0 0 0 0 0 0 0 0 0 0.25 0"/>
<feBlend mode="normal" in2="BackgroundImageFix" result="effect1_dropShadow"/>
<feBlend mode="normal" in="SourceGraphic" in2="effect1_dropShadow" result="shape"/>
</filter>
</defs>
</svg>
