<svg width="683" height="428" viewBox="0 0 683 428" fill="none" xmlns="http://www.w3.org/2000/svg">
<g filter="url(#filter0_d)">
<path d="M380.757 0H655.639C656.744 0 657.64 0.895431 657.64 2V166.988V418C657.64 419.105 656.744 420 655.64 420H380.757V0Z" fill="black"/>
<path d="M370.245 136.991L657.885 19.7922L657.764 52.227L657.59 98.9109L368.004 203.537L370.245 136.991Z" fill="url(#paint0_radial)"/>
<path d="M34.6549 2.00001C34.6549 0.895443 35.5503 0 36.6549 0H380.758V420H36.6549C35.5503 420 34.6549 419.105 34.6549 418V2.00001Z" fill="white"/>
<g filter="url(#filter1_d)">
<path d="M30.4999 129.43L381.056 140.319L380.634 206.802L3.99999 209.928L30.4999 129.43Z" fill="url(#paint1_linear)"/>
</g>
</g>
<defs>
<filter id="filter0_d" x="0" y="0" width="687" height="428" filterUnits="userSpaceOnUse" color-interpolation-filters="sRGB">
<feFlood flood-opacity="0" result="BackgroundImageFix"/>
<feColorMatrix in="SourceAlpha" type="matrix" values="0 0 0 0 0 0 0 0 0 0 0 0 0 0 0 0 0 0 127 0"/>
<feOffset dy="4"/>
<feGaussianBlur stdDeviation="2"/>
<feColorMatrix type="matrix" values="0 0 0 0 0 0 0 0 0 0 0 0 0 0 0 0 0 0 0.25 0"/>
<feBlend mode="normal" in2="BackgroundImageFix" result="effect1_dropShadow"/>
<feBlend mode="normal" in="SourceGraphic" in2="effect1_dropShadow" result="shape"/>
</filter>
<filter id="filter1_d" x="0" y="129.43" width="385.056" height="88.4981" filterUnits="userSpaceOnUse" color-interpolation-filters="sRGB">
<feFlood flood-opacity="0" result="BackgroundImageFix"/>
<feColorMatrix in="SourceAlpha" type="matrix" values="0 0 0 0 0 0 0 0 0 0 0 0 0 0 0 0 0 0 127 0"/>
<feOffset dy="4"/>
<feGaussianBlur stdDeviation="2"/>
<feColorMatrix type="matrix" values="0 0 0 0 0 0 0 0 0 0 0 0 0 0 0 0 0 0 0.25 0"/>
<feBlend mode="normal" in2="BackgroundImageFix" result="effect1_dropShadow"/>
<feBlend mode="normal" in="SourceGraphic" in2="effect1_dropShadow" result="shape"/>
</filter>
<radialGradient id="paint0_radial" cx="0" cy="0" r="1" gradientUnits="userSpaceOnUse" gradientTransform="translate(660.169 19.9607) rotate(148.086) scale(343.779 2015.5)">
<stop stop-color="#FF006E"/>
<stop offset="0.96875" stop-color="#FB5607"/>
</radialGradient>
<linearGradient id="paint1_linear" x1="257.405" y1="189.314" x2="-82.6316" y2="151.909" gradientUnits="userSpaceOnUse">
<stop stop-color="#FB5607"/>
<stop offset="1" stop-color="#FF6584"/>
</linearGradient>
</defs>
</svg>
