<svg width="51" height="61" viewBox="0 0 51 61" fill="none" xmlns="http://www.w3.org/2000/svg">
<path d="M38.2871 2H14.2871C9.31655 2 5.28711 6.14338 5.28711 11.2545V35.9331C5.28711 41.0443 9.31655 45.1876 14.2871 45.1876H38.2871C43.2577 45.1876 47.2871 41.0443 47.2871 35.9331V11.2545C47.2871 6.14338 43.2577 2 38.2871 2Z" stroke="white" stroke-width="3"/>
<path d="M26.2871 32.8483C21.3165 32.8483 17.2871 28.7049 17.2871 23.5938C17.2871 18.4826 21.3165 14.3393 26.2871 14.3393C31.2577 14.3393 35.2871 18.4826 35.2871 23.5938C35.2871 28.7049 31.2577 32.8483 26.2871 32.8483Z" stroke="white" stroke-width="3"/>
<path d="M40.2871 11.2547C40.2871 10.1189 39.3917 9.19818 38.2871 9.19818C37.1825 9.19818 36.2871 10.1189 36.2871 11.2547C36.2871 12.3905 37.1825 13.3113 38.2871 13.3113C39.3917 13.3113 40.2871 12.3905 40.2871 11.2547Z" fill="white"/>
</svg>
