<svg width="50" height="46" viewBox="0 0 50 46" fill="none" xmlns="http://www.w3.org/2000/svg">
<path d="M45.325 0.949971C43.13 0.939971 5.28 0.954971 5.28 0.954971C5.28 0.954971 0.845 0.629971 0.525 5.02497C0.5 9.42497 0.5 31.615 0.5 31.615C0.5 31.615 0.74 35.22 4.605 35.515H18.365C18.365 35.515 23.805 45.095 24.985 45.045C26.445 45.205 31.73 35.54 31.73 35.54H45.385C45.385 35.54 49.08 35.495 49.5 31.565V4.97997C49.5 4.97997 49.485 1.32997 45.325 0.949971ZM46.185 5.89497C46.185 5.89497 46.17 29.195 46.185 30.86C46.04 32.515 44.635 32.415 44.635 32.415H31.05C30.17 32.415 29.1 34.21 29.1 34.21L24.985 40.15C24.985 40.15 20.795 33.295 20.205 32.83C19.685 32.32 19.235 32.41 19.235 32.41C19.235 32.41 7.305 32.43 5.55 32.41C3.755 32.22 4.085 30.565 4.085 30.565V5.66997C4.22 4.21997 5.7 4.33497 5.7 4.33497C5.7 4.33497 42.905 4.33497 44.515 4.33497C46.215 4.28997 46.185 5.89497 46.185 5.89497ZM13.55 12.385H36.415V15.65H13.55V12.385ZM13.55 20.55H36.415V23.815H13.55V20.55Z" fill="white"/>
</svg>
