<svg width="35" height="40" viewBox="0 0 35 40" fill="none" xmlns="http://www.w3.org/2000/svg">
<path d="M21.8748 21.6666C21.0684 21.6666 20.4166 22.4133 20.4166 23.3331V30C20.4166 30.9183 19.7631 31.6666 18.9581 31.6666H14.5831V6.66656C14.5831 5.24323 13.7898 3.97156 12.597 3.49823L12.1652 3.33313H18.9581C19.7631 3.33313 20.4166 4.08142 20.4166 5V10C20.4166 10.9198 21.0684 11.6666 21.8748 11.6666C22.6812 11.6666 23.333 10.9198 23.333 10V5C23.333 2.24335 21.3701 0 18.9581 0H3.28122C3.22568 0 3.17921 0.0283814 3.12528 0.0366211C3.05505 0.0299072 2.98802 0 2.91673 0C1.30816 0 0 1.49475 0 3.33313V33.3331C0 34.7565 0.793335 36.0281 1.98614 36.5015L10.7625 39.845C11.06 39.95 11.3558 40 11.6666 40C13.2752 40 14.5831 38.5049 14.5831 36.6666V35H18.9581C21.3701 35 23.333 32.7567 23.333 30V23.3331C23.333 22.4133 22.6812 21.6666 21.8748 21.6666V21.6666Z" fill="white"/>
<path d="M34.5725 15.4881L28.739 8.82155C28.3222 8.34487 27.695 8.20143 27.1497 8.45961C26.6058 8.7181 26.2498 9.32631 26.2498 9.99983V14.9998H20.4166C19.6115 14.9998 18.9581 15.7463 18.9581 16.6664C18.9581 17.5865 19.6115 18.333 20.4166 18.333H26.2498V23.333C26.2498 24.0065 26.6058 24.6147 27.1497 24.8732C27.695 25.1314 28.3222 24.9879 28.739 24.5115L34.5725 17.8447C35.1426 17.1931 35.1426 16.1397 34.5725 15.4881V15.4881Z" fill="white"/>
</svg>
