<svg width="50" height="46" viewBox="0 0 50 46" fill="none" xmlns="http://www.w3.org/2000/svg">
<path d="M24.9999 45.2182C24.2881 45.2182 23.6019 44.9604 23.067 44.4919C21.0472 42.7257 19.0998 41.0659 17.3816 39.6019L17.3729 39.5942C12.3356 35.3016 7.98567 31.5945 4.9591 27.9426C1.57585 23.8602 0 19.9894 0 15.7608C0 11.6524 1.40876 7.86212 3.96651 5.0877C6.55478 2.28047 10.1063 0.734375 13.9679 0.734375C16.8541 0.734375 19.4973 1.64685 21.8238 3.44624C22.998 4.35452 24.0623 5.46612 24.9999 6.76273C25.938 5.46612 27.0019 4.35452 28.1764 3.44624C30.503 1.64685 33.1462 0.734375 36.0324 0.734375C39.8936 0.734375 43.4455 2.28047 46.0338 5.0877C48.5915 7.86212 49.9999 11.6524 49.9999 15.7608C49.9999 19.9894 48.4244 23.8602 45.0412 27.9423C42.0146 31.5945 37.6651 35.3012 32.6286 39.5935C30.9074 41.0598 28.9569 42.7223 26.9325 44.4927C26.398 44.9604 25.7114 45.2182 24.9999 45.2182V45.2182ZM13.9679 3.66329C10.934 3.66329 8.14703 4.87408 6.11952 7.07286C4.06188 9.30484 2.92854 12.3902 2.92854 15.7608C2.92854 19.3173 4.25033 22.4979 7.21396 26.0738C10.0784 29.5303 14.339 33.1611 19.2722 37.3653L19.2813 37.3729C21.006 38.8427 22.961 40.509 24.9958 42.2882C27.0427 40.5056 29.0008 38.8366 30.7288 37.3646C35.6616 33.1604 39.9219 29.5303 42.7863 26.0738C45.7496 22.4979 47.0714 19.3173 47.0714 15.7608C47.0714 12.3902 45.938 9.30484 43.8804 7.07286C41.8532 4.87408 39.0659 3.66329 36.0324 3.66329C33.81 3.66329 31.7695 4.36977 29.9678 5.7629C28.3622 7.00496 27.2437 8.57509 26.588 9.67372C26.2508 10.2387 25.6572 10.5759 24.9999 10.5759C24.3427 10.5759 23.7491 10.2387 23.4119 9.67372C22.7565 8.57509 21.6381 7.00496 20.0321 5.7629C18.2304 4.36977 16.1899 3.66329 13.9679 3.66329V3.66329Z" fill="white"/>
</svg>
