<svg width="174" height="67" viewBox="0 0 174 67" fill="none" xmlns="http://www.w3.org/2000/svg">
<path d="M169.145 8.81414L160.975 3.28907C159.283 2.14479 156.99 2.58562 155.853 4.27369L150.365 12.4244C149.228 14.1125 149.678 16.4086 151.37 17.5529L159.54 23.0779C161.232 24.2222 163.525 23.7814 164.662 22.0933L170.15 13.9426C171.287 12.2545 170.837 9.95842 169.145 8.81414Z" stroke="white" stroke-width="2"/>
<path d="M158.199 16.24C156.507 15.0957 156.057 12.7997 157.194 11.1116C158.33 9.42349 160.623 8.98267 162.315 10.127C164.007 11.2712 164.458 13.5673 163.321 15.2554C162.184 16.9435 159.891 17.3843 158.199 16.24Z" stroke="white" stroke-width="2"/>
<path d="M167.767 12.3312C168.02 11.956 167.92 11.4458 167.544 11.1915C167.168 10.9372 166.658 11.0352 166.405 11.4103C166.153 11.7854 166.253 12.2957 166.629 12.55C167.005 12.8042 167.514 12.7063 167.767 12.3312Z" fill="white"/>
<path d="M21 41.65C15.7967 42.1167 11.48 42.35 8.05 42.35C5.76333 42.35 4.08333 41.8133 3.01 40.74C1.93667 39.6667 1.4 37.9867 1.4 35.7V24.5C1.4 22.05 1.94833 20.2767 3.045 19.18C4.165 18.06 5.95 17.5 8.4 17.5H21V22.4H9.8C8.4 22.4 7.7 23.1 7.7 24.5V35.7C7.7 36.2367 7.85167 36.6683 8.155 36.995C8.48167 37.2983 8.89 37.45 9.38 37.45C9.87 37.45 10.4067 37.45 10.99 37.45C11.5733 37.4267 12.18 37.4033 12.81 37.38C13.44 37.3567 14.07 37.3333 14.7 37.31C15.3533 37.2867 16.1817 37.24 17.185 37.17C18.2117 37.1 19.4833 37.0183 21 36.925V41.65ZM30.8041 37.45C32.0408 37.45 33.4408 37.2167 35.0041 36.75V34.65H29.9291C29.5791 34.65 29.2874 34.7667 29.0541 35C28.8208 35.2333 28.7041 35.525 28.7041 35.875V36.225C28.7041 36.575 28.8208 36.8667 29.0541 37.1C29.2874 37.3333 29.5791 37.45 29.9291 37.45H30.8041ZM24.3291 23.8C28.5991 23.3333 32.4491 23.1 35.8791 23.1C37.4658 23.1 38.7374 23.5783 39.6941 24.535C40.6508 25.4917 41.1291 26.7633 41.1291 28.35V42H35.7041L35.3541 40.25C34.2574 40.9733 33.1258 41.51 31.9591 41.86C30.8158 42.1867 29.8474 42.35 29.0541 42.35H27.8291C26.2424 42.35 24.9708 41.8717 24.0141 40.915C23.0574 39.9583 22.5791 38.6867 22.5791 37.1V35.525C22.5791 33.9383 23.0574 32.6667 24.0141 31.71C24.9708 30.7533 26.2424 30.275 27.8291 30.275H35.0041V28.875C35.0041 28.525 34.8874 28.2333 34.6541 28C34.4208 27.7667 34.1291 27.65 33.7791 27.65C32.2624 27.65 30.5824 27.72 28.7391 27.86C26.9191 28 25.4491 28.105 24.3291 28.175V23.8ZM56.6945 23.1C58.5845 23.1 60.0429 23.8 61.0695 25.2C62.1429 24.4767 63.2979 23.9517 64.5345 23.625C65.7945 23.275 66.9145 23.1 67.8945 23.1H68.2445C69.8312 23.1 71.1029 23.5783 72.0595 24.535C73.0162 25.4917 73.4945 26.7633 73.4945 28.35V42H67.3695V29.4C67.3695 29.05 67.2529 28.7583 67.0195 28.525C66.7862 28.2917 66.4945 28.175 66.1445 28.175H65.9695C64.9195 28.175 63.5779 28.4083 61.9445 28.875V42H55.8195V29.4C55.8195 29.05 55.7029 28.7583 55.4695 28.525C55.2362 28.2917 54.9445 28.175 54.5945 28.175H54.4195C53.3695 28.175 52.0279 28.4083 50.3945 28.875V42H44.2695V23.45H49.6945L50.0445 25.2C51.1412 24.4767 52.2612 23.9517 53.4045 23.625C54.5712 23.275 55.5512 23.1 56.3445 23.1H56.6945ZM83.9877 37.45C85.2244 37.45 86.6244 37.2167 88.1877 36.75V34.65H83.1127C82.7627 34.65 82.471 34.7667 82.2377 35C82.0044 35.2333 81.8877 35.525 81.8877 35.875V36.225C81.8877 36.575 82.0044 36.8667 82.2377 37.1C82.471 37.3333 82.7627 37.45 83.1127 37.45H83.9877ZM77.5127 23.8C81.7827 23.3333 85.6327 23.1 89.0627 23.1C90.6494 23.1 91.921 23.5783 92.8777 24.535C93.8344 25.4917 94.3127 26.7633 94.3127 28.35V42H88.8877L88.5377 40.25C87.441 40.9733 86.3094 41.51 85.1427 41.86C83.9994 42.1867 83.031 42.35 82.2377 42.35H81.0127C79.426 42.35 78.1544 41.8717 77.1977 40.915C76.241 39.9583 75.7627 38.6867 75.7627 37.1V35.525C75.7627 33.9383 76.241 32.6667 77.1977 31.71C78.1544 30.7533 79.426 30.275 81.0127 30.275H88.1877V28.875C88.1877 28.525 88.071 28.2333 87.8377 28C87.6044 27.7667 87.3127 27.65 86.9627 27.65C85.446 27.65 83.766 27.72 81.9227 27.86C80.1027 28 78.6327 28.105 77.5127 28.175V23.8ZM109.528 40.6C107.265 41.0667 105.281 41.3 103.578 41.3H102.353C100.766 41.3 99.4948 40.8217 98.5381 39.865C97.5815 38.9083 97.1031 37.6367 97.1031 36.05V29.05C97.1031 27.3 97.5931 25.935 98.5731 24.955C99.5765 23.9517 100.953 23.45 102.703 23.45H115.653V43.05C115.653 44.6367 115.175 45.9083 114.218 46.865C113.261 47.8217 111.99 48.3 110.403 48.3C106.74 48.3 102.656 48.0667 98.1531 47.6V43.05C102.61 43.4 105.993 43.575 108.303 43.575C108.653 43.575 108.945 43.4583 109.178 43.225C109.411 42.9917 109.528 42.7 109.528 42.35V40.6ZM105.328 36.575C106.798 36.575 108.198 36.4583 109.528 36.225V28.175H104.628C103.695 28.175 103.228 28.6417 103.228 29.575V35.35C103.228 35.7 103.345 35.9917 103.578 36.225C103.811 36.4583 104.103 36.575 104.453 36.575H105.328ZM129.832 28.525C128.362 28.525 126.846 28.875 125.282 29.575V42H119.157V23.45H124.582L124.932 25.725C126.939 23.975 129.039 23.1 131.232 23.1H132.807V28.525H129.832ZM143.831 37.275C145.068 37.275 146.468 37.0417 148.031 36.575V23.45H154.156V42H148.731L148.381 40.25C147.284 40.9733 146.153 41.51 144.986 41.86C143.843 42.1867 142.874 42.35 142.081 42.35H140.506C138.919 42.35 137.648 41.8717 136.691 40.915C135.734 39.9583 135.256 38.6867 135.256 37.1V23.45H141.381V36.05C141.381 36.4 141.498 36.6917 141.731 36.925C141.964 37.1583 142.256 37.275 142.606 37.275H143.831Z" fill="white"/>
</svg>
