<svg width="55" height="72" viewBox="0 0 55 72" fill="none" xmlns="http://www.w3.org/2000/svg">
<path d="M19.1021 2H21.0612V11.7561H19.1021V2Z" fill="#FF006E"/>
<path d="M12.8979 2H14.8571V11.7561H12.8979V2Z" fill="#FFBE0B" fill-opacity="0.84"/>
<path d="M16 2H17.9592V11.7561H16V2Z" fill="#FB5607"/>
<path d="M6.08684 59H2.57684L7.34684 46.4H10.9468L15.7168 59H12.2068L11.3968 56.75H6.89684L6.08684 59ZM7.70684 54.41H10.5868L9.14684 50.18L7.70684 54.41ZM27.0646 58.73C24.2566 59.03 21.6766 59.18 19.3246 59.18C18.1486 59.18 17.2846 58.904 16.7326 58.352C16.1806 57.8 15.9046 56.936 15.9046 55.76V50C15.9046 48.74 16.1866 47.828 16.7506 47.264C17.3266 46.688 18.2446 46.4 19.5046 46.4H25.9846V48.92H20.2246C19.5046 48.92 19.1446 49.28 19.1446 50V55.76C19.1446 56.036 19.2226 56.258 19.3786 56.426C19.5466 56.582 19.7686 56.66 20.0446 56.66C21.4246 56.66 22.6846 56.63 23.8246 56.57V53.96H21.4846V51.8H27.0646V58.73ZM28.8681 46.4H36.4281C37.6881 46.4 38.6001 46.688 39.1641 47.264C39.7401 47.828 40.0281 48.74 40.0281 50V51.62C40.0281 52.616 39.8601 53.39 39.5241 53.942C39.2001 54.494 38.6781 54.86 37.9581 55.04L40.2081 59H36.6981L34.6281 55.22H32.1081V59H28.8681V46.4ZM36.7881 50C36.7881 49.28 36.4281 48.92 35.7081 48.92H32.1081V52.7H35.7081C36.4281 52.7 36.7881 52.34 36.7881 51.62V50ZM49.9232 46.4H53.1632V55.58C53.1632 56.84 52.8752 57.758 52.2992 58.334C51.7352 58.898 50.8232 59.18 49.5632 59.18H45.4232C44.1632 59.18 43.2452 58.898 42.6692 58.334C42.1052 57.758 41.8232 56.84 41.8232 55.58V46.4H45.0632V55.58C45.0632 56.3 45.4232 56.66 46.1432 56.66H48.8432C49.5632 56.66 49.9232 56.3 49.9232 55.58V46.4Z" fill="white"/>
<rect x="7" y="1" width="42" height="42" rx="9" stroke="white" stroke-width="2"/>
<path d="M28 31C23.0294 31 19 26.9706 19 22C19 17.0294 23.0294 13 28 13C32.9706 13 37 17.0294 37 22C37 26.9706 32.9706 31 28 31Z" stroke="white" stroke-width="2"/>
<rect x="38" y="8.00024" width="4" height="4" rx="2" fill="white"/>
</svg>
