<svg width="51" height="61" viewBox="0 0 51 61" fill="none" xmlns="http://www.w3.org/2000/svg">
<path d="M17.3892 4.00787C17.3892 3.46688 17.8277 3.02832 18.3687 3.02832V3.02832C18.9097 3.02832 19.3483 3.46688 19.3483 4.00787V12.0807C19.3483 12.6217 18.9097 13.0603 18.3687 13.0603V13.0603C17.8277 13.0603 17.3892 12.6217 17.3892 12.0807V4.00787Z" fill="#FF006E"/>
<path d="M11.1851 4.00792C11.1851 3.4669 11.6236 3.02832 12.1647 3.02832V3.02832C12.7057 3.02832 13.1443 3.4669 13.1443 4.00792V12.0807C13.1443 12.6217 12.7057 13.0603 12.1647 13.0603V13.0603C11.6236 13.0603 11.1851 12.6217 11.1851 12.0807V4.00792Z" fill="#FFBE0B" fill-opacity="0.84"/>
<path d="M14.2871 4.00792C14.2871 3.4669 14.7257 3.02832 15.2667 3.02832V3.02832C15.8077 3.02832 16.2463 3.4669 16.2463 4.00792V12.0807C16.2463 12.6217 15.8077 13.0603 15.2667 13.0603V13.0603C14.7257 13.0603 14.2871 12.6217 14.2871 12.0807V4.00792Z" fill="#FB5607"/>
<path d="M3.51001 60.77H1.14441e-05L4.77001 47.8137H8.36997L13.14 60.77H9.62997L8.81997 58.4564H4.32001L3.51001 60.77ZM5.13001 56.0502H8.00997L6.57001 51.7006L5.13001 56.0502ZM24.4878 60.4924C21.6798 60.8009 19.0998 60.9551 16.7478 60.9551C15.5718 60.9551 14.7078 60.6713 14.1558 60.1037C13.6038 59.5361 13.3278 58.6477 13.3278 57.4384V51.5155C13.3278 50.2199 13.6098 49.2821 14.1738 48.7022C14.7498 48.1099 15.6678 47.8137 16.9278 47.8137H23.4078V50.405H17.6478C16.9278 50.405 16.5678 50.7752 16.5678 51.5155V57.4384C16.5678 57.7222 16.6458 57.9505 16.8018 58.1232C16.9698 58.2836 17.1918 58.3638 17.4678 58.3638C18.8478 58.3638 20.1078 58.333 21.2478 58.2713V55.5875H18.9078V53.3664H24.4878V60.4924ZM26.2913 47.8137H33.8513C35.1113 47.8137 36.0233 48.1099 36.5873 48.7022C37.1633 49.2821 37.4513 50.2199 37.4513 51.5155V53.1813C37.4513 54.2055 37.2833 55.0014 36.9473 55.569C36.6233 56.1366 36.1013 56.513 35.3813 56.698L37.6313 60.77H34.1213L32.0513 56.8831H29.5313V60.77H26.2913V47.8137ZM34.2113 51.5155C34.2113 50.7752 33.8513 50.405 33.1313 50.405H29.5313V54.2919H33.1313C33.8513 54.2919 34.2113 53.9217 34.2113 53.1813V51.5155ZM47.3464 47.8137H50.5864V57.2533C50.5864 58.5489 50.2984 59.4929 49.7224 60.0852C49.1584 60.6651 48.2464 60.9551 46.9864 60.9551H42.8464C41.5864 60.9551 40.6684 60.6651 40.0924 60.0852C39.5284 59.4929 39.2464 58.5489 39.2464 57.2533V47.8137H42.4864V57.2533C42.4864 57.9937 42.8464 58.3638 43.5664 58.3638H46.2664C46.9864 58.3638 47.3464 57.9937 47.3464 57.2533V47.8137Z" fill="white"/>
<path d="M38.2871 2H14.2871C9.31655 2 5.28711 6.14338 5.28711 11.2545V35.9331C5.28711 41.0443 9.31655 45.1876 14.2871 45.1876H38.2871C43.2577 45.1876 47.2871 41.0443 47.2871 35.9331V11.2545C47.2871 6.14338 43.2577 2 38.2871 2Z" stroke="white" stroke-width="3"/>
<path d="M26.2871 32.8483C21.3165 32.8483 17.2871 28.7049 17.2871 23.5938C17.2871 18.4826 21.3165 14.3393 26.2871 14.3393C31.2577 14.3393 35.2871 18.4826 35.2871 23.5938C35.2871 28.7049 31.2577 32.8483 26.2871 32.8483Z" stroke="white" stroke-width="3"/>
<path d="M40.2871 11.2547C40.2871 10.1189 39.3917 9.19818 38.2871 9.19818C37.1825 9.19818 36.2871 10.1189 36.2871 11.2547C36.2871 12.3905 37.1825 13.3113 38.2871 13.3113C39.3917 13.3113 40.2871 12.3905 40.2871 11.2547Z" fill="white"/>
</svg>
