<svg width="30" height="30" viewBox="0 0 30 30" fill="none" xmlns="http://www.w3.org/2000/svg">
<g clip-path="url(#clip0)">
<path d="M28.4644 11.8517L26.3587 11.4945C26.1394 10.7864 25.8574 10.1033 25.5127 9.45151L26.7535 7.71557C27.28 6.97607 27.1985 5.9671 26.553 5.32787L24.6855 3.46032C24.3345 3.10937 23.8708 2.9151 23.3757 2.9151C22.9871 2.9151 22.6174 3.03417 22.304 3.25978L20.5618 4.50063C19.885 4.14342 19.1768 3.84887 18.4436 3.62953L18.0926 1.54891C17.9422 0.652738 17.1714 0.000976562 16.2627 0.000976562H13.6243C12.7156 0.000976562 11.9448 0.652738 11.7944 1.54891L11.4309 3.67967C10.729 3.89901 10.0459 4.18729 9.39413 4.53824L7.67073 3.29738C7.35738 3.07177 6.98136 2.9527 6.59281 2.9527C6.09773 2.9527 5.62771 3.14698 5.28303 3.49792L3.40921 5.36547C2.76998 6.0047 2.68225 7.01367 3.20867 7.75317L4.46206 9.51418C4.11738 10.1722 3.84163 10.8553 3.62855 11.5635L1.54793 11.9144C0.651761 12.0648 0 12.8357 0 13.7444V16.3827C0 17.2914 0.651761 18.0623 1.54793 18.2127L3.67869 18.5762C3.89803 19.2781 4.18631 19.9612 4.53726 20.6129L3.30267 22.3301C2.77625 23.0696 2.85772 24.0785 3.50322 24.7178L5.37076 26.5853C5.72171 26.9362 6.18546 27.1305 6.68055 27.1305C7.0691 27.1305 7.43885 27.0115 7.7522 26.7858L9.51321 25.5325C10.1462 25.8646 10.8105 26.1341 11.4936 26.3472L11.8445 28.4528C11.9949 29.349 12.7657 30.0008 13.6744 30.0008H16.3191C17.2278 30.0008 17.9986 29.349 18.149 28.4528L18.5063 26.3472C19.2144 26.1278 19.8975 25.8458 20.5493 25.5011L22.2852 26.742C22.5986 26.9676 22.9746 27.0867 23.3631 27.0867C23.8582 27.0867 24.322 26.8924 24.6729 26.5414L26.5405 24.6739C27.1797 24.0347 27.2674 23.0257 26.741 22.2862L25.5002 20.544C25.8448 19.886 26.1331 19.2029 26.3462 18.501L28.4519 18.15C29.3481 17.9996 29.9998 17.2288 29.9998 16.3201V13.6817C30.0123 12.773 29.3606 12.0022 28.4644 11.8517ZM28.3203 16.3201C28.3203 16.4015 28.2639 16.4705 28.1824 16.483L25.5503 16.9217C25.2181 16.9781 24.9549 17.2225 24.8735 17.5421C24.6353 18.4634 24.2718 19.347 23.783 20.168C23.6138 20.4562 23.6263 20.8135 23.8206 21.0892L25.3685 23.2701C25.4124 23.3328 25.4061 23.4268 25.3497 23.4832L23.4822 25.3507C23.4383 25.3946 23.3945 25.4009 23.3631 25.4009C23.3255 25.4009 23.2942 25.3883 23.2691 25.3695L21.0945 23.8216C20.825 23.6273 20.4615 23.6148 20.1733 23.784C19.3523 24.2728 18.4687 24.6363 17.5474 24.8744C17.2215 24.9559 16.9771 25.2254 16.927 25.5513L16.482 28.1834C16.4695 28.2648 16.4006 28.3212 16.3191 28.3212H13.6807C13.5992 28.3212 13.5303 28.2648 13.5178 28.1834L13.0791 25.5513C13.0227 25.2191 12.7783 24.9559 12.4587 24.8744C11.5625 24.6426 10.6977 24.2853 9.88922 23.8216C9.75762 23.7464 9.60721 23.7088 9.46307 23.7088C9.29386 23.7088 9.11839 23.7589 8.97425 23.8655L6.78082 25.4259C6.74949 25.4447 6.71815 25.4573 6.68682 25.4573C6.66175 25.4573 6.61162 25.451 6.56775 25.4071L4.7002 23.5396C4.6438 23.4832 4.63753 23.3954 4.6814 23.3265L6.22307 21.1644C6.41734 20.8887 6.42987 20.5252 6.26067 20.2369C5.77185 19.4222 5.39583 18.5386 5.15769 17.6173C5.06995 17.2977 4.80674 17.0533 4.48086 16.9969L1.82994 16.5457C1.74847 16.5331 1.69207 16.4642 1.69207 16.3827V13.7444C1.69207 13.6629 1.74847 13.594 1.82994 13.5814L4.44326 13.1427C4.7754 13.0863 5.04488 12.8419 5.12635 12.516C5.35823 11.5948 5.71544 10.7049 6.198 9.88393C6.3672 9.59565 6.3484 9.23843 6.15413 8.96896L4.59366 6.77553C4.54979 6.71286 4.55606 6.61886 4.61246 6.56245L6.48001 4.69491C6.52388 4.65104 6.56775 4.64477 6.59908 4.64477C6.63668 4.64477 6.66802 4.65731 6.69309 4.67611L8.85518 6.21777C9.13092 6.41205 9.4944 6.42458 9.78268 6.25538C10.5974 5.76655 11.481 5.39054 12.4023 5.15239C12.7219 5.06466 12.9663 4.80145 13.0227 4.47557L13.4739 1.82465C13.4864 1.74318 13.5554 1.68678 13.6368 1.68678H16.2752C16.3567 1.68678 16.4256 1.74318 16.4382 1.82465L16.8769 4.43796C16.9333 4.77011 17.1777 5.03959 17.5035 5.12106C18.4499 5.3592 19.3523 5.72895 20.1921 6.22404C20.4803 6.39325 20.8376 6.38071 21.1133 6.18644L23.2754 4.63224C23.3067 4.61344 23.3381 4.6009 23.3694 4.6009C23.3945 4.6009 23.4446 4.60717 23.4885 4.65104L25.356 6.51859C25.4124 6.57499 25.4187 6.66273 25.3748 6.73166L23.8269 8.90629C23.6326 9.17576 23.6201 9.53925 23.7893 9.82753C24.2781 10.6485 24.6416 11.5321 24.8797 12.4534C24.9612 12.7793 25.2307 13.0237 25.5566 13.0738L28.1887 13.5187C28.2701 13.5313 28.3265 13.6002 28.3265 13.6817V16.3201H28.3203V16.3201Z" fill="white"/>
<path d="M15.003 8.52307C11.4309 8.52307 8.5293 11.4247 8.5293 14.9968C8.5293 18.569 11.4309 21.4705 15.003 21.4705C18.5752 21.4705 21.4768 18.569 21.4768 14.9968C21.4768 11.4247 18.5752 8.52307 15.003 8.52307ZM15.003 19.7785C12.3647 19.7785 10.2214 17.6352 10.2214 14.9968C10.2214 12.3584 12.3647 10.2151 15.003 10.2151C17.6414 10.2151 19.7847 12.3584 19.7847 14.9968C19.7847 17.6352 17.6414 19.7785 15.003 19.7785Z" fill="white"/>
</g>
<defs>
<clipPath id="clip0">
<rect width="30" height="30" fill="white"/>
</clipPath>
</defs>
</svg>
